<svg width="20" height="21" viewBox="0 0 20 21" fill="none" xmlns="http://www.w3.org/2000/svg">
<path d="M13.125 6.21008C13.125 5.54602 13.6719 4.96008 14.375 4.96008C15.0391 4.96008 15.625 5.54602 15.625 6.21008C15.625 6.91321 15.0391 7.46008 14.375 7.46008C13.6719 7.46008 13.125 6.91321 13.125 6.21008ZM13.125 14.3351C12.7344 14.3351 12.3828 14.3351 12.0312 14.257L10.9375 15.3116C10.7812 15.507 10.5469 15.5851 10.3125 15.5851H8.75V17.1476C8.75 17.6945 8.32031 18.0851 7.8125 18.0851H6.25V19.6476C6.25 20.1945 5.82031 20.5851 5.3125 20.5851H0.9375C0.390625 20.5851 0 20.1945 0 19.6476V15.2726C0 15.0382 0.078125 14.8038 0.273438 14.6085L6.32812 8.55383C6.25 8.20227 6.25 7.85071 6.25 7.46008C6.25 3.67102 9.29688 0.585083 13.125 0.585083C16.9141 0.585083 20 3.67102 20 7.46008C20 11.2882 16.9141 14.3351 13.125 14.3351ZM13.125 12.4601C15.8594 12.4601 18.125 10.2335 18.125 7.46008C18.125 4.72571 15.8594 2.46008 13.125 2.46008C10.3516 2.46008 8.125 4.72571 8.125 7.46008C8.125 7.73352 8.125 8.00696 8.16406 8.2804L8.32031 9.2179L1.83594 15.6632V18.7101H4.33594V16.2101H6.83594V13.7101H9.92188L11.3672 12.2648L12.3047 12.421C12.5781 12.4601 12.8516 12.4601 13.125 12.4601Z" fill="#171717"/>
</svg>
