<svg width="202" height="41" viewBox="0 0 202 41" fill="none" xmlns="http://www.w3.org/2000/svg">
<path fill-rule="evenodd" clip-rule="evenodd" d="M23.9922 1.12031C23.5037 1.2153 22.7439 1.4324 22.2961 1.59523C21.8483 1.75806 20.8985 2.1787 20.1929 2.5315C19.4873 2.88429 18.2661 3.60345 17.4791 4.13265C16.6921 4.66184 15.4708 5.59811 14.7653 6.23585C14.0597 6.86003 13.0827 7.82344 12.5942 8.37977C12.1057 8.92253 11.2373 10.0216 10.6403 10.8086C10.0568 11.5956 9.16122 12.939 8.65917 13.7938C8.14354 14.6487 7.38367 16.087 6.94946 16.9826C6.52882 17.8781 5.90464 19.3164 5.57899 20.1713C5.23976 21.0261 4.81912 22.3423 4.62915 23.0886C4.37134 24.147 4.27635 24.9205 4.22208 26.6166C4.1678 28.0414 4.20851 29.1405 4.31706 29.8053C4.41204 30.3617 4.62915 31.2165 4.79198 31.705C4.95481 32.1935 5.2669 32.9262 5.47043 33.3333C5.67397 33.7404 6.10818 34.4188 6.42027 34.8259C6.73236 35.233 7.28869 35.8164 7.65505 36.115C8.02142 36.4135 8.78129 36.9155 9.33762 37.2276C9.89395 37.5533 11.278 38.1775 12.3907 38.6117C13.5169 39.0594 15.1588 39.6429 16.0543 39.9143C16.9499 40.1857 18.4153 40.5249 19.3109 40.6877C20.6542 40.9184 21.3191 40.9456 23.1102 40.8913C24.6978 40.837 25.5798 40.7556 26.3668 40.5385C26.9639 40.3892 27.968 39.9957 28.5921 39.6836C29.3249 39.3173 30.0169 38.8288 30.5054 38.3539C30.926 37.9332 31.4416 37.2548 31.6588 36.7934C31.998 36.1014 32.0658 35.7893 32.1065 34.6902C32.1472 33.659 32.093 33.1433 31.8216 32.1121C31.6452 31.4065 31.2381 30.226 30.926 29.5068C30.6275 28.7741 30.0576 27.6071 29.6641 26.9287C29.2706 26.2367 28.4972 25.0562 27.9273 24.3099C27.3709 23.5636 26.4211 22.4645 25.824 21.8539C25.227 21.2568 24.2365 20.3748 23.6259 19.8863C23.0288 19.4114 22.4318 19.0179 22.3097 19.0179C22.1875 19.0179 22.0926 19.0451 22.0926 19.0858C22.0926 19.1265 22.4725 19.52 22.9203 19.9678C23.3816 20.4155 24.0872 21.1754 24.4807 21.6639C24.8742 22.1524 25.2134 22.6002 25.2134 22.6816C25.2134 22.763 24.5893 22.1524 23.8158 21.3247C23.0424 20.497 22.079 19.5743 21.6719 19.2622C21.2648 18.9501 20.5728 18.4752 20.125 18.2038C19.6773 17.946 18.8224 17.566 18.2254 17.3625C17.3705 17.0911 16.8549 17.0097 15.7829 17.0097C14.8874 16.9961 14.1682 17.0775 13.6797 17.2268C13.2727 17.3489 12.6485 17.6339 12.2957 17.8646L11.6444 18.2716C11.4273 17.5932 11.373 17.1725 11.373 16.9147C11.373 16.6569 11.4951 16.0463 11.6308 15.5578C11.7801 15.0693 12.2007 14.2145 12.5806 13.6581C12.947 13.1018 13.6662 12.1927 14.1682 11.6363C14.6838 11.0936 15.593 10.2659 16.19 9.81809C16.787 9.37031 17.8047 8.74613 18.4696 8.42048C19.1209 8.09482 20.1793 7.66061 20.8442 7.45707C21.9162 7.13141 22.2282 7.09071 24.2636 7.09071C26.0004 7.07714 26.7467 7.13141 27.588 7.33495C28.1851 7.47064 29.162 7.75559 29.7591 7.9727C30.3561 8.1898 31.1431 8.59687 31.5095 8.88182C31.8894 9.15321 32.3779 9.64169 32.595 9.95378C32.8257 10.2659 33.1513 10.7544 33.3277 11.0393C33.4906 11.3243 33.8162 11.6635 34.0333 11.7992C34.264 11.9213 34.6032 12.0299 34.7932 12.0299C34.9967 12.0299 35.2953 11.867 35.5395 11.6228C35.8516 11.2971 35.933 11.0936 35.933 10.6458C35.933 10.2523 35.7973 9.83166 35.5395 9.38388C35.336 9.01752 34.7661 8.35263 34.2912 7.91842C33.8162 7.48421 32.9614 6.90074 32.405 6.61579C31.8487 6.31727 30.9939 5.96447 30.5054 5.81521C30.0169 5.66595 29.0399 5.47599 28.3343 5.381C27.5066 5.25888 26.5025 5.23174 25.5527 5.28602C24.725 5.3403 23.5444 5.50312 22.9067 5.63881C22.2689 5.78807 21.292 6.07303 20.7356 6.26299C20.1793 6.46653 19.3245 6.83289 18.836 7.07714C18.3475 7.32138 17.3977 7.89128 16.7328 8.33906C16.0679 8.78684 14.9959 9.62812 14.3717 10.2252C13.7476 10.8086 12.7977 11.867 12.2685 12.5726C11.7258 13.2782 11.0202 14.3502 10.6945 14.9472C10.1789 15.8563 10.0703 15.9785 10.0432 15.6935C10.0161 15.5035 10.1925 14.7708 10.4231 14.0652C10.6538 13.3596 11.088 12.3148 11.3865 11.7585C11.6851 11.2021 12.255 10.3201 12.662 9.79095C13.0555 9.27533 13.829 8.42048 14.3717 7.90485C14.9281 7.37566 15.8915 6.61579 16.5292 6.20872C17.167 5.80164 18.1847 5.23174 18.8088 4.94679C19.4194 4.66184 20.5185 4.25477 21.2377 4.03766C21.9704 3.83413 22.9881 3.57632 23.5173 3.4949C24.0465 3.39992 25.1727 3.2778 26.0276 3.20995C27.2352 3.11497 27.6423 3.03355 27.8323 2.84359C27.968 2.70789 28.0765 2.42294 28.0765 2.19227C28.0765 1.94803 27.9544 1.67664 27.7644 1.50025C27.588 1.33742 27.3166 1.13388 27.1402 1.05247C26.9774 0.971053 26.3939 0.903208 25.8512 0.916777C25.322 0.916777 24.4807 1.01176 23.9922 1.12031ZM14.1954 21.0536C13.829 21.1621 13.3405 21.4606 13.0963 21.7049C12.8113 21.9763 12.5942 22.3833 12.4857 22.8175C12.3771 23.211 12.35 23.7267 12.4043 24.0388C12.445 24.3373 12.6214 24.8529 12.7706 25.1921C12.9335 25.5314 13.3948 26.142 13.8155 26.5626C14.2904 27.0511 14.9417 27.5124 15.6473 27.8652C16.2443 28.1638 17.1942 28.5844 17.7505 28.7744C18.3068 28.9779 19.7723 29.4528 21.0071 29.8328C22.5404 30.3077 23.5038 30.5248 24.033 30.5383C24.7386 30.5519 24.8607 30.5112 25.1592 30.1856C25.3492 29.9549 25.4849 29.6292 25.4849 29.3985C25.4849 29.1814 25.3899 28.7608 25.2678 28.4894C25.1592 28.2045 24.7928 27.6074 24.4808 27.1596C24.1551 26.7119 23.1103 25.5449 22.1469 24.5544C21.0749 23.4553 20.0301 22.5462 19.4466 22.1662C18.9174 21.8406 18.1304 21.4335 17.6826 21.2571C17.2077 21.0807 16.4479 20.9314 15.8508 20.9043C15.1859 20.8636 14.616 20.9179 14.1818 21.0536H14.1954Z" fill="#181D27"/>
<path d="M3.63861 19.7235C3.16369 20.307 2.55308 21.1754 2.26813 21.6639C1.98318 22.1524 1.58968 22.9665 1.38614 23.4957C1.1826 24.0249 0.911223 24.8662 0.775532 25.3954C0.639841 25.9246 0.463443 26.983 0.382029 27.77C0.287045 28.747 0.287045 29.6154 0.382029 30.5516C0.463443 31.2979 0.639841 32.3699 0.789101 32.9262C0.924792 33.4826 1.20974 34.3374 1.41328 34.8259C1.63038 35.3144 1.9289 35.9386 2.1053 36.2235C2.2817 36.4949 2.64806 36.9834 2.91945 37.2819C3.2044 37.594 3.80144 38.1096 4.24922 38.4217C4.69699 38.7474 5.42973 39.1816 5.8775 39.4122C6.32528 39.6293 7.28869 40.0093 8.00785 40.24C8.74058 40.4706 9.67685 40.7013 10.0975 40.7692C10.6403 40.837 10.8845 40.8234 11.0066 40.6877C11.1152 40.5701 11.1242 40.4752 11.0338 40.4028C10.9523 40.3349 10.3417 39.9957 9.67685 39.6429C8.99839 39.2901 8.00785 38.6931 7.45152 38.2996C6.89519 37.9197 6.09461 37.2683 5.68754 36.8613C5.2669 36.4542 4.66986 35.7486 4.37134 35.3008C4.05925 34.853 3.69288 34.2424 3.54362 33.9439C3.38079 33.6454 3.13655 33.0076 2.98729 32.5192C2.83803 32.0307 2.6345 31.0944 2.55308 30.4159C2.43096 29.4797 2.41739 28.8555 2.53951 27.7021C2.6345 26.888 2.82446 25.6261 2.98729 24.9205C3.13655 24.2149 3.47578 23.0208 3.73359 22.2745C3.9914 21.5282 4.39848 20.5512 4.61558 20.1035C4.83269 19.6557 4.99551 19.1672 4.96838 19.0179C4.94124 18.8687 4.83269 18.733 4.697 18.7058C4.5613 18.6787 4.18137 19.0315 3.63861 19.7235Z" fill="#181D27"/>
<path d="M61.0592 32.745C55.0592 32.745 50.9792 28.275 50.9792 21.675C50.9792 15.075 55.1192 10.575 61.1792 10.575C65.7992 10.575 69.4292 13.365 70.2992 17.625H67.9892C67.0892 14.535 64.4492 12.645 61.0892 12.645C56.3792 12.645 53.2292 16.245 53.2292 21.675C53.2292 27.075 56.3792 30.675 61.0892 30.675C64.4792 30.675 67.1792 28.845 68.1092 25.965H70.4192C69.4292 30.015 65.6792 32.745 61.0592 32.745ZM72.6847 25.155C72.6847 20.715 75.8047 17.505 80.0647 17.505C84.3247 17.505 87.4447 20.715 87.4447 25.155C87.4447 29.565 84.3247 32.775 80.0647 32.775C75.8047 32.775 72.6847 29.565 72.6847 25.155ZM74.7847 25.125C74.7847 28.545 76.9447 30.915 80.0647 30.915C83.1547 30.915 85.3447 28.545 85.3447 25.125C85.3447 21.765 83.1547 19.365 80.0647 19.365C76.9447 19.365 74.7847 21.765 74.7847 25.125ZM96.4555 32.775C92.2255 32.775 89.7355 29.535 89.7355 25.185C89.7355 20.805 92.2255 17.505 96.5455 17.505C98.9455 17.505 100.865 18.555 101.885 20.655V10.545H103.955V32.415H102.155L101.945 29.445C100.925 31.695 98.8855 32.775 96.4555 32.775ZM96.8155 30.885C99.9955 30.885 101.855 28.485 101.855 25.125C101.855 21.795 99.9955 19.365 96.8155 19.365C93.6655 19.365 91.8355 21.795 91.8355 25.125C91.8355 28.485 93.6655 30.885 96.8155 30.885ZM114.365 32.775C110.105 32.775 107.255 29.715 107.255 25.155C107.255 20.625 110.075 17.505 114.215 17.505C118.145 17.505 120.815 20.295 120.815 24.405V25.425H109.265C109.415 28.965 111.275 31.005 114.395 31.005C116.765 31.005 118.295 29.985 118.835 28.065H120.815C120.035 31.125 117.785 32.775 114.365 32.775ZM114.215 19.275C111.485 19.275 109.685 21.075 109.325 23.925H118.745C118.745 21.135 116.945 19.275 114.215 19.275ZM124.135 32.415H121.945L129.835 10.935H132.505L140.485 32.415H138.235L136.135 26.715H126.235L124.135 32.415ZM130.885 13.965L126.895 24.825H135.445L131.425 13.965C131.335 13.665 131.185 13.305 131.155 13.095C131.125 13.275 131.005 13.665 130.885 13.965ZM145.091 32.415H143.021V17.895H144.821L145.121 20.415C146.081 18.555 148.001 17.505 150.101 17.505C154.091 17.505 155.741 19.875 155.741 23.535V32.415H153.671V23.985C153.671 20.595 152.141 19.395 149.741 19.395C146.771 19.395 145.091 21.555 145.091 24.825V32.415ZM163.197 32.415H161.157V19.635H158.247V17.895H161.157V13.305H163.197V17.895H166.107V19.635H163.197V32.415ZM177.573 32.415H175.383L183.273 10.935H185.943L193.923 32.415H191.673L189.573 26.715H179.673L177.573 32.415ZM184.323 13.965L180.333 24.825H188.883L184.863 13.965C184.773 13.665 184.623 13.305 184.593 13.095C184.563 13.275 184.443 13.665 184.323 13.965ZM199.069 10.935V32.415H196.909V10.935H199.069Z" fill="#181D27"/>
</svg>
